{
	"asset":{
		"generator":"Khronos glTF Blender I/O v3.6.27",
		"version":"2.0"
	},
	"extensionsUsed":[
		"KHR_materials_specular",
		"KHR_materials_ior"
	],
	"scene":0,
	"scenes":[
		{
			"name":"Scene",
			"nodes":[
				7,
				11
			]
		}
	],
	"nodes":[
		{
			"name":"Bone.003",
			"rotation":[
				0.6973264217376709,
				-0.09593354910612106,
				-0.08759748190641403,
				0.7048825025558472
			],
			"scale":[
				1.0000001192092896,
				1.0000001192092896,
				0.9999999403953552
			],
			"translation":[
				-7.241033017635345e-08,
				0.4201571047306061,
				5.4016709327697754e-08
			]
		},
		{
			"children":[
				0
			],
			"name":"Bone.002",
			"rotation":[
				-0.01727382466197014,
				1.0243962833555997e-07,
				-0.4878130555152893,
				0.8727772235870361
			],
			"scale":[
				1,
				0.9999999403953552,
				0.9999999403953552
			],
			"translation":[
				7.683411240577698e-09,
				1.0589730739593506,
				-1.30385160446167e-08
			]
		},
		{
			"children":[
				1
			],
			"name":"Bone.001",
			"rotation":[
				-0.6951361894607544,
				0.04180007800459862,
				0.07668448984622955,
				0.7135530710220337
			],
			"scale":[
				0.9999999403953552,
				1.0000001192092896,
				1
			],
			"translation":[
				5.149922799319029e-08,
				1.1342231035232544,
				3.0617229640483856e-08
			]
		},
		{
			"children":[
				2
			],
			"name":"Bone",
			"rotation":[
				0.07888595759868622,
				-2.2668282326776534e-05,
				1.5852587239351124e-05,
				0.9968836903572083
			],
			"translation":[
				5.343463271856308e-08,
				-2.3748725652694702e-08,
				-3.0617229640483856e-08
			]
		},
		{
			"name":"neutral_bone",
			"rotation":[
				-0.7071067690849304,
				0,
				0,
				0.7071067690849304
			]
		},
		{
			"mesh":0,
			"name":"Foot",
			"skin":0
		},
		{
			"mesh":1,
			"name":"umbrella",
			"skin":0
		},
		{
			"children":[
				5,
				6,
				3,
				4
			],
			"name":"Armature",
			"rotation":[
				-0.08192503452301025,
				-0.0015380162512883544,
				-0.00207168934866786,
				0.9966351389884949
			],
			"scale":[
				3.4509565830230713,
				3.4509565830230713,
				3.450956106185913
			],
			"translation":[
				-1.3605791330337524,
				-3.8063735961914062,
				1.9598420858383179
			]
		},
		{
			"name":"Bone.001",
			"rotation":[
				-0.692934513092041,
				0.060450490564107895,
				0.09567570686340332,
				0.7120630145072937
			],
			"scale":[
				1,
				0.9999999403953552,
				1
			],
			"translation":[
				-5.5952114053070545e-08,
				1.1342229843139648,
				-3.92028596252203e-08
			]
		},
		{
			"children":[
				8
			],
			"name":"Bone",
			"rotation":[
				0.07888595759868622,
				-2.2668102246825583e-05,
				1.5852407159400173e-05,
				0.9968836903572083
			],
			"translation":[
				2.898741513490677e-08,
				9.4645656645298e-08,
				1.1641532182693481e-10
			]
		},
		{
			"mesh":2,
			"name":"Foot.001",
			"skin":1
		},
		{
			"children":[
				10,
				9
			],
			"name":"Armature.001",
			"rotation":[
				0.9966351389884949,
				-0.00207168934866786,
				0.0015380162512883544,
				0.08192504197359085
			],
			"scale":[
				-3.4509565830230713,
				-3.450956106185913,
				-3.450956106185913
			],
			"translation":[
				1.333851933479309,
				-3.747175931930542,
				1.9194318056106567
			]
		}
	],
	"materials":[
		{
			"doubleSided":true,
			"extensions":{
				"KHR_materials_specular":{
					"specularColorFactor":[
						0,
						0,
						0
					]
				},
				"KHR_materials_ior":{
					"ior":1.4500000476837158
				}
			},
			"name":"02___Default",
			"pbrMetallicRoughness":{
				"baseColorFactor":[
					0.8000000715255737,
					0.514057993888855,
					0.34882432222366333,
					1
				],
				"metallicFactor":0
			}
		},
		{
			"doubleSided":true,
			"extensions":{
				"KHR_materials_specular":{
					"specularColorFactor":[
						0,
						0,
						0
					]
				},
				"KHR_materials_ior":{
					"ior":1.4500000476837158
				}
			},
			"name":"umbrella-material",
			"pbrMetallicRoughness":{
				"baseColorFactor":[
					0.7890149354934692,
					0.8000000715255737,
					0.1699608564376831,
					8
				],
				"metallicFactor":0,
				"roughnessFactor":0.7142857313156128
			}
		},
		{
			"doubleSided":true,
			"extensions":{
				"KHR_materials_specular":{
					"specularColorFactor":[
						0,
						0,
						0
					]
				},
				"KHR_materials_ior":{
					"ior":1.4500000476837158
				}
			},
			"name":"02___Default.001",
			"pbrMetallicRoughness":{
				"baseColorFactor":[
					0.8000000715255737,
					0.514057993888855,
					0.34882432222366333,
					1
				],
				"metallicFactor":0
			}
		}
	],
	"meshes":[
		{
			"name":"Foot",
			"primitives":[
				{
					"attributes":{
						"POSITION":0,
						"NORMAL":1,
						"TEXCOORD_0":2,
						"JOINTS_0":3,
						"WEIGHTS_0":4
					},
					"indices":5,
					"material":0
				}
			]
		},
		{
			"name":"uploads_files_3675773_Umbrella_OBJ",
			"primitives":[
				{
					"attributes":{
						"POSITION":7,
						"NORMAL":8,
						"TEXCOORD_0":9,
						"JOINTS_0":10,
						"WEIGHTS_0":11
					},
					"indices":12,
					"material":1
				}
			]
		},
		{
			"name":"Foot.001",
			"primitives":[
				{
					"attributes":{
						"POSITION":13,
						"NORMAL":14,
						"TEXCOORD_0":15,
						"JOINTS_0":16,
						"WEIGHTS_0":17
					},
					"indices":5,
					"material":2
				}
			]
		}
	],
	"skins":[
		{
			"inverseBindMatrices":6,
			"joints":[
				3,
				2,
				1,
				0,
				4
			],
			"name":"Armature"
		},
		{
			"inverseBindMatrices":18,
			"joints":[
				9,
				8
			],
			"name":"Armature.001"
		}
	],
	"accessors":[
		{
			"bufferView":0,
			"componentType":5126,
			"count":1212,
			"max":[
				-0.6184610724449158,
				0.8964372277259827,
				2.9487645626068115
			],
			"min":[
				-2.974280834197998,
				-4.260120391845703,
				-3.318711519241333
			],
			"type":"VEC3"
		},
		{
			"bufferView":1,
			"componentType":5126,
			"count":1212,
			"type":"VEC3"
		},
		{
			"bufferView":2,
			"componentType":5126,
			"count":1212,
			"type":"VEC2"
		},
		{
			"bufferView":3,
			"componentType":5121,
			"count":1212,
			"type":"VEC4"
		},
		{
			"bufferView":4,
			"componentType":5126,
			"count":1212,
			"type":"VEC4"
		},
		{
			"bufferView":5,
			"componentType":5123,
			"count":6192,
			"type":"SCALAR"
		},
		{
			"bufferView":6,
			"componentType":5126,
			"count":5,
			"type":"MAT4"
		},
		{
			"bufferView":7,
			"componentType":5126,
			"count":6104,
			"max":[
				4.181229114532471,
				7.1126251220703125,
				2.1345267295837402
			],
			"min":[
				-5.592411041259766,
				-0.24764972925186157,
				-7.639113903045654
			],
			"type":"VEC3"
		},
		{
			"bufferView":8,
			"componentType":5126,
			"count":6104,
			"type":"VEC3"
		},
		{
			"bufferView":9,
			"componentType":5126,
			"count":6104,
			"type":"VEC2"
		},
		{
			"bufferView":10,
			"componentType":5121,
			"count":6104,
			"type":"VEC4"
		},
		{
			"bufferView":11,
			"componentType":5126,
			"count":6104,
			"type":"VEC4"
		},
		{
			"bufferView":12,
			"componentType":5123,
			"count":24228,
			"type":"SCALAR"
		},
		{
			"bufferView":13,
			"componentType":5126,
			"count":1212,
			"max":[
				3.181546449661255,
				0.9539666175842285,
				2.831131935119629
			],
			"min":[
				0.3509531617164612,
				-4.207760810852051,
				-3.432713270187378
			],
			"type":"VEC3"
		},
		{
			"bufferView":14,
			"componentType":5126,
			"count":1212,
			"type":"VEC3"
		},
		{
			"bufferView":15,
			"componentType":5126,
			"count":1212,
			"type":"VEC2"
		},
		{
			"bufferView":16,
			"componentType":5121,
			"count":1212,
			"type":"VEC4"
		},
		{
			"bufferView":17,
			"componentType":5126,
			"count":1212,
			"type":"VEC4"
		},
		{
			"bufferView":18,
			"componentType":5126,
			"count":2,
			"type":"MAT4"
		}
	],
	"bufferViews":[
		{
			"buffer":0,
			"byteLength":14544,
			"byteOffset":0,
			"target":34962
		},
		{
			"buffer":0,
			"byteLength":14544,
			"byteOffset":14544,
			"target":34962
		},
		{
			"buffer":0,
			"byteLength":9696,
			"byteOffset":29088,
			"target":34962
		},
		{
			"buffer":0,
			"byteLength":4848,
			"byteOffset":38784,
			"target":34962
		},
		{
			"buffer":0,
			"byteLength":19392,
			"byteOffset":43632,
			"target":34962
		},
		{
			"buffer":0,
			"byteLength":12384,
			"byteOffset":63024,
			"target":34963
		},
		{
			"buffer":0,
			"byteLength":320,
			"byteOffset":75408
		},
		{
			"buffer":0,
			"byteLength":73248,
			"byteOffset":75728,
			"target":34962
		},
		{
			"buffer":0,
			"byteLength":73248,
			"byteOffset":148976,
			"target":34962
		},
		{
			"buffer":0,
			"byteLength":48832,
			"byteOffset":222224,
			"target":34962
		},
		{
			"buffer":0,
			"byteLength":24416,
			"byteOffset":271056,
			"target":34962
		},
		{
			"buffer":0,
			"byteLength":97664,
			"byteOffset":295472,
			"target":34962
		},
		{
			"buffer":0,
			"byteLength":48456,
			"byteOffset":393136,
			"target":34963
		},
		{
			"buffer":0,
			"byteLength":14544,
			"byteOffset":441592,
			"target":34962
		},
		{
			"buffer":0,
			"byteLength":14544,
			"byteOffset":456136,
			"target":34962
		},
		{
			"buffer":0,
			"byteLength":9696,
			"byteOffset":470680,
			"target":34962
		},
		{
			"buffer":0,
			"byteLength":4848,
			"byteOffset":480376,
			"target":34962
		},
		{
			"buffer":0,
			"byteLength":19392,
			"byteOffset":485224,
			"target":34962
		},
		{
			"buffer":0,
			"byteLength":128,
			"byteOffset":504616
		}
	],
	"buffers":[
		{
			"byteLength":504744,
			"uri":"data:application/octet-stream;base64,"
		}
	]
}
